<mxfile host="app.diagrams.net" modified="2024-01-17T03:38:35.899Z" agent="Mozilla/5.0 (Windows NT 10.0; Win64; x64) AppleWebKit/537.36 (KHTML, like Gecko) Chrome/120.0.0.0 Safari/537.36" version="22.1.20" etag="FYoofH74vJUtp6HkJI1K" type="github">
  <diagram name="第 1 页" id="F3lhwBuXSOfy9chZAAE-">
    <mxGraphModel>
      <root>
        <mxCell id="0" />
        <mxCell id="1" parent="0" />
      </root>
    </mxGraphModel>
  </diagram>
</mxfile>
